<?xml version="1.0" encoding="UTF-8" standalone="no"?>
<!DOCTYPE svg PUBLIC "-//W3C//DTD SVG 1.1//EN" "http://www.w3.org/Graphics/SVG/1.1/DTD/svg11.dtd">
<svg width="100%" height="100%" viewBox="0 0 256 256" version="1.1" xmlns="http://www.w3.org/2000/svg" xmlns:xlink="http://www.w3.org/1999/xlink" xml:space="preserve" xmlns:serif="http://www.serif.com/" style="fill-rule:evenodd;clip-rule:evenodd;stroke-linejoin:round;stroke-miterlimit:2;">
    <rect x="0" y="0" width="256" height="256" style="fill:white;"/>
    <g transform="matrix(1.3617,0,0,1.3617,-144.34,-144.34)">
        <path d="M180.389,169.697L180.389,155.318C180.389,152.698 180.524,151.824 180.928,150.48C182.006,146.785 185.646,144.03 189.959,144.03C194.271,144.03 197.91,146.852 198.988,150.48C199.393,151.824 199.529,152.698 199.529,155.318L199.529,177.491C199.529,178.835 199.529,180.178 199.259,181.388C198.518,184.747 195.485,187.772 192.115,188.51C190.902,188.779 189.554,188.779 188.206,188.779L165.967,188.779C163.339,188.779 162.462,188.644 161.114,188.241C157.475,187.166 154.645,183.538 154.645,179.238C154.645,174.937 157.475,171.309 161.114,170.234C162.462,169.831 163.339,169.697 165.967,169.697L180.389,169.697ZM259.643,270.215L140.357,270.215L140.357,165.464C140.357,164.12 140.829,162.978 141.773,162.037L172.706,131.196C173.649,130.256 174.795,129.786 176.143,129.786L259.643,129.786L259.643,270.215ZM273.189,106.134C272.583,106.067 271.774,106 270.224,106L172.975,106C171.898,106 170.82,106.067 170.078,106.134C165.629,106.537 161.653,108.62 158.486,111.778L122.295,147.86C119.129,151.019 117.039,154.982 116.636,159.417C116.567,160.155 116.5,161.23 116.5,162.305L116.5,280.763C116.5,282.309 116.567,283.116 116.636,283.72C117.174,288.759 121.756,293.327 126.811,293.865C127.418,293.933 128.226,294 129.776,294L270.224,294C271.774,294 272.583,293.933 273.189,293.865C278.244,293.327 282.826,288.759 283.366,283.72C283.432,283.116 283.5,282.309 283.5,280.763L283.5,119.237C283.5,117.691 283.432,116.884 283.366,116.28C282.826,111.241 278.244,106.672 273.189,106.134Z" style="fill:rgb(65,201,180);"/>
    </g>
</svg>
